<svg xmlns="http://www.w3.org/2000/svg" viewBox="0 0 71.1 71.1"><g><path d="M56.13 26.12l-.9-10.25L45 15l-2.46 5.92 7.69 7.69 5.92-2.45zM21.94 2.7L35.55 0l13.6 2.7 11.53 7.71 7.71 11.53 2.71 13.61-2.71 13.6-7.71 11.54-11.53 7.7-13.6 2.71-13.6-2.71-11.53-7.7-7.71-11.54L0 35.55l2.7-13.61 7.71-11.53L21.94 2.7zm.71 1.72l-6 9.68 9.65-.85L33.73 7 22.65 4.43zm-8.54 12.25l-9.68 6L7 33.74l6.22-7.42.85-9.65zm.37-2.19l5.06-8.18-7.93 5.3-5.31 7.94 8.18-5.05zM7 37.36L4.43 48.44l9.68 6-.85-9.65L7 37.36zm-1.25-1.81l-2.2-9.35-1.86 9.35 1.86 9.35 2.21-9.35zM16.67 57l6 9.69 11.08-2.62-7.42-6.22-9.66-.85zm-2.19-.37L6.3 51.56l5.3 7.94 7.93 5.3-5.05-8.18zm34 10.06l6-9.68-9.65.84-7.42 6.22 11.08 2.62zM57 54.42l9.69-6-2.64-11.06-6.22 7.42-.83 9.64zm-.37 2.19l-5.07 8.19 7.93-5.3 5.3-7.94-8.18 5.06zm7.44-22.88l2.62-11.08-9.69-6 .85 9.65 6.22 7.42zm1.29 1.81l2.21 9.35 1.86-9.35-1.88-9.34-2.21 9.35zM54.42 14.11l-6-9.68L37.36 7l7.41 6.22 9.65.85zm2.19.37l8.18 5.06-5.3-7.94-7.93-5.3 5.05 8.18zM35.55 65.34l-9.35 2.21 9.35 1.86 9.35-1.86-9.35-2.21zm0-59.58l9.35-2.21-9.35-1.86-9.35 1.86 9.35 2.21zm-7.89 51l7.89 6.61 7.89-6.62-2.44-5.9H30.11l-2.45 5.93zm-1.54-.64l2.45-5.92-7.69-7.69L15 45l.9 10.25 10.26.9zm3.79-7h11.28l8-8V29.9l-8-8H29.9l-8 8v11.29l8 8zm12.62 1L45 56.13l10.26-.9.87-10.23-5.92-2.46-7.69 7.69zM50.84 41l5.93 2.45 6.62-7.89-6.62-7.89-5.93 2.46V41zm-7.41-26.68l-7.88-6.61-7.89 6.62 2.45 5.93H41l2.45-5.93zM26.12 15l-10.26.9L15 26.12l5.92 2.45 7.69-7.68L26.12 15zm-11.8 12.7L7.7 35.55l6.62 7.89L20.25 41V30.11l-5.93-2.45z" fill="#333333"/></g></svg>