<svg xmlns="http://www.w3.org/2000/svg" viewBox="0 0 510.23 510.23"><g><g fill="#231815"><path d="M375.38 255.12L255.12 134.88 134.88 255.12l120.24 120.23zM255.12 183l72.16 72.14-72.16 72.14L183 255.12z"/><path d="M209.93 374.18H34.01V136.06h38.46l-19.64-34.01H0v306.11h229.57l-19.64-33.98zM437.77 374.18l19.64 33.98h52.82V102.05H280.66l19.65 34.01h175.92v238.12h-38.46z"/><path d="M102.07 229.57l33.99-19.62V34.01h238.12v38.46l34.01-19.64V0H102.07v229.57zM408.19 280.66l-34.01 19.65v175.92H136.06v-38.46l-33.99 19.64v52.82h306.12V280.66z"/></g></g></svg>